<svg xmlns="http://www.w3.org/2000/svg" width="1400" height="850" viewBox="0 0 1400 850" data-diagram-role="plumbing-gas" role="img">
<title>20 给排水与燃气图</title>
<desc>冷热水、排水、地漏、马桶坑位与燃气双支路</desc>

<defs>
  <pattern id="hatch" width="12" height="12" patternUnits="userSpaceOnUse" patternTransform="rotate(45)">
    <rect width="12" height="12" fill="#f1f5f9"/><line y2="12" stroke="#cbd5e1" stroke-width="4"/>
  </pattern>
  <pattern id="danger" width="10" height="10" patternUnits="userSpaceOnUse" patternTransform="rotate(45)">
    <rect width="10" height="10" fill="#fff1f2"/><line y2="10" stroke="#fecaca" stroke-width="3"/>
  </pattern>
  <marker id="arrow" markerWidth="8" markerHeight="8" refX="6" refY="4" orient="auto"><path d="M0 0L8 4 0 8z" fill="#334155"/></marker>
  <marker id="blue-arrow" markerWidth="8" markerHeight="8" refX="6" refY="4" orient="auto"><path d="M0 0L8 4 0 8z" fill="#2563eb"/></marker>
  <style>
    text{font-family:"Source Han Sans SC","Heiti SC","Arial Unicode MS",sans-serif}
    .wall{fill:none;stroke:#1f2937;stroke-width:7;stroke-linecap:square;stroke-linejoin:miter}
    .iw{fill:none;stroke:#475569;stroke-width:5;stroke-linecap:square}
    .win{stroke:#0284c7;stroke-width:8}.winc{stroke:#e0f2fe;stroke-width:2.5}
    .title{font-size:30px;font-weight:750;fill:#172033}.subtitle{font-size:14px;fill:#64748b}
    .room{font-size:18px;font-weight:750;fill:#334155;text-anchor:middle}.roomsub{font-size:12px;fill:#64748b;text-anchor:middle}
    .note{font-size:14px;fill:#334155}.small{font-size:12px;fill:#526175}.micro{font-size:10px;fill:#64748b}
    .panel{fill:#fff;stroke:#d6dae1;stroke-width:1.5}.fixed{fill:#fffdf8;stroke:#64748b;stroke-width:2}
    .planned{fill:#fff7ed;stroke:#f97316;stroke-width:2;stroke-dasharray:7 5}
    .water{fill:none;stroke:#0284c7;stroke-width:4}.hot{fill:none;stroke:#dc2626;stroke-width:4}
    .drain{fill:none;stroke:#0f766e;stroke-width:5}.gas{fill:none;stroke:#ea580c;stroke-width:4}
    .power{fill:none;stroke:#2563eb;stroke-width:3}.network{fill:none;stroke:#7c3aed;stroke-width:3;stroke-dasharray:7 5}
    .danger{fill:#fff1f2;stroke:#dc2626;stroke-width:2}.cat{fill:none;stroke:#16a34a;stroke-width:6;stroke-dasharray:8 5}
    .dim{fill:none;stroke:#64748b;stroke-width:1.5}.dimtext{font-size:12px;fill:#475569;text-anchor:middle}
    .center{text-anchor:middle}.bold{font-weight:700}.orange{fill:#c2410c}.red{fill:#b91c1c}.blue{fill:#1d4ed8}.green{fill:#15803d}.purple{fill:#6d28d9}
  </style>
</defs>

<rect width="1400" height="850" fill="#fbfaf7"/>
<text x="70" y="52" class="title">20 给排水与燃气图</text>
<text x="70" y="78" class="subtitle">冷热水、排水、地漏、马桶坑位与燃气双支路</text>

<rect x="100" y="130" width="300" height="400" fill="#f7ead7" opacity="0.68"/>
<rect x="100" y="530" width="300" height="100" fill="#e6f3e8" opacity="0.68"/>
<rect x="400" y="130" width="200" height="200" fill="#f9efd0" opacity="0.68"/>
<rect x="400" y="330" width="100" height="120" fill="#dff3f7" opacity="0.68"/>
<rect x="500" y="330" width="100" height="120" fill="#edf1f5" opacity="0.68"/>
<rect x="400" y="450" width="200" height="80" fill="#edf1f5" opacity="0.68"/>
<rect x="600" y="130" width="300" height="300" fill="#ece8f7" opacity="0.68"/>
<rect x="600" y="430" width="300" height="100" fill="url(#hatch)"/>

<path class="wall" d="M100 130H900V430H600V530H400V630H100Z"/>
<path class="iw" d="M400 130V450M400 330H520M500 330V450M400 450H405M475 450H600M600 130V345M600 425V530M600 430H900M100 530H250"/>
<path d="M400 450V530" stroke="#f7ead7" stroke-width="10"/>
<path d="M520 330H600" stroke="#edf1f5" stroke-width="10"/>
<path d="M405 450H475" stroke="#edf1f5" stroke-width="10"/>
<path d="M600 345V425" stroke="#ece8f7" stroke-width="10"/>
<path d="M600 450V530" stroke="#f1f5f9" stroke-width="10"/>
<path d="M250 530H400" stroke="#e6f3e8" stroke-width="10"/>
<path class="win" d="M200 130H300M450 130H550M700 130H800M100 535V625M110 630H390M435 330H485"/><path class="winc" d="M200 130H300M450 130H550M700 130H800M100 535V625M110 630H390M435 330H485"/>
<circle cx="400" cy="350" r="9" fill="#0284c7"/><text x="386" y="345" class="small blue" text-anchor="end">入户水</text>
<path class="water" d="M400 350V365H430M400 350V430H480M400 350V290H425M400 350H360V410" marker-end="url(#blue-arrow)"/>
<text x="438" y="365" class="micro blue">马桶冷水</text><text x="484" y="432" class="micro blue">浴室柜冷水</text><text x="326" y="408" class="micro blue">洗衣机冷水</text>
<path class="hot" d="M425 280V340H450V400M450 340H480"/>
<text x="435" y="270" class="small red">热水器出水回卫生间</text>
<circle cx="400" cy="330" r="11" fill="#0f766e"/><text x="414" y="326" class="small green">排水立管</text>
<circle cx="430" cy="430" r="9" fill="#0f766e"/><text x="444" y="434" class="small green">扬子纯铜防臭地漏</text>
<path class="drain" d="M360 410H430V430M430 365L400 330M430 430L400 330" stroke-dasharray="8 5"/>
<circle cx="430" cy="365" r="7" fill="#fff" stroke="#0f766e" stroke-width="3"/><text x="440" y="382" class="micro">马桶坑位：距北墙0.35m</text>
<circle cx="598" cy="165" r="10" fill="#ea580c"/><text x="610" y="160" class="small orange">燃气入口</text>
<path class="gas" d="M588 165H550" marker-end="url(#arrow)"/><text x="518" y="181" class="small orange">燃气灶直连支路</text>
<path class="gas" d="M588 165V145H420V270" marker-end="url(#arrow)"/><text x="500" y="136" class="small orange center">热水器支路：沿北墙向西约2m</text>
<rect x="405" y="255" width="42" height="62" rx="4" fill="#fff7ed" stroke="#ea580c" stroke-width="2"/><text x="454" y="283" class="small orange">燃气热水器</text>

<text x="250" y="270" class="room">客厅</text><text x="250" y="291" class="roomsub">净4.0×3.0m</text>
<text x="500" y="225" class="room">厨房</text><text x="500" y="246" class="roomsub">约2.0×&lt;2.0m</text>
<text x="450" y="388" class="room">卫生间</text><text x="450" y="408" class="roomsub">设计基准约1.05×0.75m</text>
<text x="750" y="280" class="room">卧室</text><text x="750" y="301" class="roomsub">净3.0×3.0m</text>
<text x="550" y="390" class="room">走廊B</text><text x="500" y="492" class="room">玄关 / 走廊A</text>
<text x="250" y="586" class="room">转角阳台</text><text x="750" y="482" class="room">公共走廊（非套内）</text>
<rect x="970" y="120" width="370" height="560" rx="14" class="panel"/><text x="994" y="160" class="note bold">本图只回答管线连接</text><text x="994" y="196" class="note">蓝：冷水；红：热水回路</text><text x="994" y="225" class="note">绿：排水及唯一立管</text><text x="994" y="254" class="note">橙：燃气入口和两条支路</text><text x="994" y="283" class="note">地漏已安装，包含于500元服务</text><text x="994" y="312" class="note">水泥/沙子/堵漏王用于固定改管</text><text x="994" y="341" class="note red">燃气管遮盖和检修仍需验收确认</text><text x="994" y="370" class="note red">封闭饰面前应做联合排水测试</text><line x1="994" y1="502" x2="1316" y2="502" stroke="#e2e8f0"/><line x1="998" y1="520" x2="1030" y2="520" stroke="#0284c7" stroke-width="5"/><text x="1044" y="524" class="small">冷水</text><line x1="998" y1="549" x2="1030" y2="549" stroke="#dc2626" stroke-width="5"/><text x="1044" y="553" class="small">热水</text><line x1="998" y1="578" x2="1030" y2="578" stroke="#0f766e" stroke-width="5"/><text x="1044" y="582" class="small">排水</text><line x1="998" y1="607" x2="1030" y2="607" stroke="#ea580c" stroke-width="5"/><text x="1044" y="611" class="small">燃气</text>
<text x="100" y="800" class="small">V4 讨论图｜北↑ 东→｜坐标和尺寸以 house.yaml 与现场复测为准，不替代施工放样或专项验收。</text>
</svg>
